<?xml version="1.0" encoding="UTF-8"?>
<svg xmlns="http://www.w3.org/2000/svg" width="228" height="53" viewBox="0 0 228 53" fill="none">
  <g clip-path="url(#clip0_411_5604)">
    <path d="M65.3896 42.477V14.7849H71.9234C76.9721 14.7849 80.9386 16.0209 83.8226 18.493C86.7001 20.965 88.1454 24.3421 88.1454 28.631C88.1454 31.2043 87.5779 33.4872 86.4361 35.4797C85.301 37.4722 83.6312 39.1134 81.4467 40.3967C80.2126 41.1329 78.8662 41.6665 77.3945 41.9907C75.9294 42.3149 74.1013 42.477 71.9234 42.477H65.3896ZM70.0886 38.0666H72.5305C75.903 38.0666 78.5363 37.229 80.437 35.554C82.3311 33.879 83.2814 31.569 83.2814 28.631C83.2814 25.6929 82.3311 23.3695 80.437 21.7012C78.5429 20.0329 75.903 19.2021 72.5305 19.2021H70.0886V38.0733V38.0666Z" fill="#002E6D"></path>
    <path d="M105.754 37.4721L105.305 41.6192C103.998 42.1798 102.79 42.5918 101.682 42.862C100.573 43.1321 99.5102 43.2605 98.4873 43.2605C95.8474 43.2605 93.6695 42.3757 91.947 40.6061C90.2244 38.8365 89.3599 36.5873 89.3599 33.8654C89.3599 31.1435 90.2244 28.9146 91.947 27.145C93.6695 25.3754 95.8474 24.4906 98.4873 24.4906C100.89 24.4906 102.817 25.1728 104.262 26.5439C105.714 27.915 106.433 29.7318 106.433 31.9945C106.433 32.2984 106.414 32.805 106.381 33.5007C106.367 33.6155 106.361 33.6965 106.361 33.7506L105.932 34.4598L93.8213 34.8988C93.9335 36.405 94.4482 37.5734 95.359 38.411C96.2764 39.2485 97.5105 39.674 99.0614 39.674C99.992 39.674 100.982 39.5051 102.018 39.1674C103.054 38.8297 104.295 38.2691 105.74 37.4789L105.754 37.4721ZM93.9071 32.3525L102.249 31.954V31.7243C102.249 30.6572 101.899 29.7859 101.206 29.1172C100.507 28.4485 99.6092 28.1108 98.5005 28.1108C97.2795 28.1108 96.2698 28.4823 95.4712 29.232C94.666 29.975 94.1513 31.0151 93.9137 32.3525H93.9071Z" fill="#002E6D"></path>
    <path d="M108.888 45.2057C110.354 45.8812 111.68 46.3742 112.855 46.6782C114.03 46.9821 115.145 47.1374 116.207 47.1374C117.6 47.1374 118.689 46.793 119.461 46.104C120.24 45.4151 120.629 44.456 120.629 43.22V42.1326C119.758 42.5041 118.946 42.781 118.194 42.9769C117.442 43.166 116.749 43.2605 116.115 43.2605C113.541 43.2605 111.456 42.423 109.872 40.748C108.288 39.073 107.489 36.8846 107.489 34.1897C107.489 31.4948 108.354 29.2186 110.076 27.368C111.799 25.5241 113.878 24.5988 116.32 24.5988C117.006 24.5988 117.712 24.6866 118.445 24.8689C119.177 25.0445 119.956 25.3215 120.774 25.6929L124.787 25.2742V41.5855C124.787 43.1255 124.701 44.2872 124.536 45.0639C124.371 45.8406 124.088 46.5498 123.685 47.1847C122.952 48.3329 121.89 49.2177 120.504 49.8391C119.118 50.4605 117.488 50.7779 115.627 50.7779C114.472 50.7779 113.35 50.6564 112.267 50.4065C111.185 50.1565 110.149 49.7851 109.172 49.292L108.895 45.226L108.888 45.2057ZM120.669 38.5191V28.9282C120.048 28.5837 119.461 28.3338 118.907 28.165C118.352 28.0029 117.798 27.9151 117.237 27.9151C115.666 27.9151 114.406 28.5027 113.442 29.6711C112.479 30.8396 111.997 32.3931 111.997 34.3315C111.997 36.0268 112.419 37.3506 113.264 38.303C114.109 39.2553 115.277 39.7349 116.775 39.7349C117.395 39.7349 118.029 39.6335 118.669 39.4377C119.309 39.2418 119.976 38.9311 120.675 38.5124L120.669 38.5191Z" fill="#002E6D"></path>
    <path d="M143.399 37.4721L142.95 41.6192C141.643 42.1798 140.435 42.5918 139.327 42.862C138.218 43.1321 137.155 43.2605 136.132 43.2605C133.492 43.2605 131.314 42.3757 129.592 40.6061C127.869 38.8365 127.005 36.5873 127.005 33.8654C127.005 31.1435 127.869 28.9146 129.592 27.145C131.314 25.3754 133.499 24.4906 136.132 24.4906C138.535 24.4906 140.462 25.1728 141.907 26.5439C143.352 27.915 144.078 29.7318 144.078 31.9945C144.078 32.2984 144.059 32.805 144.026 33.5007C144.012 33.6155 144.006 33.6965 144.006 33.7506L143.577 34.4598L131.466 34.8988C131.578 36.405 132.093 37.5734 133.004 38.411C133.915 39.2485 135.156 39.674 136.706 39.674C137.637 39.674 138.627 39.5051 139.663 39.1674C140.699 38.8297 141.94 38.2691 143.385 37.4789L143.399 37.4721ZM131.552 32.3525L139.894 31.954V31.7243C139.894 30.6572 139.544 29.7859 138.851 29.1172C138.152 28.4485 137.254 28.1108 136.145 28.1108C134.925 28.1108 133.915 28.4823 133.116 29.232C132.311 29.975 131.796 31.0151 131.559 32.3525H131.552Z" fill="#002E6D"></path>
    <path d="M150.678 42.477H146.236V25.2674H150.361V28.1514C151.285 27.0167 152.282 26.1724 153.357 25.6186C154.433 25.0648 155.615 24.7878 156.895 24.7878C158.796 24.7878 160.248 25.3079 161.231 26.3548C162.221 27.4017 162.716 28.9282 162.716 30.9409V42.477H158.274V31.9135C158.274 30.8598 158.017 30.0561 157.509 29.5158C157 28.9754 156.248 28.7053 155.252 28.7053C153.78 28.7053 152.658 29.0632 151.866 29.7724C151.074 30.4884 150.685 31.5082 150.685 32.8456V42.4703L150.678 42.477Z" fill="#002E6D"></path>
    <path d="M183.393 42.477H177.737L170.404 34.4936V42.477H165.963V15.2239L170.404 14.3999V31.8392L176.542 25.2674H181.934L174.061 32.7713L183.393 42.477Z" fill="#002E6D"></path>
    <path d="M182.257 33.8587C182.257 31.1435 183.122 28.9079 184.844 27.1383C186.567 25.3687 188.745 24.4839 191.385 24.4839C194.025 24.4839 196.196 25.3687 197.905 27.1315C199.615 28.8944 200.473 31.1367 200.473 33.8654C200.473 36.5941 199.615 38.85 197.905 40.6196C196.196 42.3824 194.018 43.2672 191.385 43.2672C188.751 43.2672 186.567 42.3824 184.844 40.6129C183.122 38.8433 182.257 36.5941 182.257 33.8722V33.8587ZM186.791 33.8992C186.791 35.6215 187.22 37.0129 188.072 38.0733C188.923 39.1337 190.025 39.6673 191.385 39.6673C192.744 39.6673 193.807 39.1337 194.658 38.0665C195.51 36.9994 195.939 35.608 195.939 33.8992C195.939 32.1904 195.516 30.7855 194.671 29.7184C193.827 28.6512 192.731 28.1109 191.385 28.1109C190.038 28.1109 188.923 28.6445 188.072 29.7049C187.22 30.7653 186.791 32.1634 186.791 33.8992Z" fill="#002E6D"></path>
    <path d="M207.251 42.477H202.736V15.2239L207.251 14.3999V42.477Z" fill="#002E6D"></path>
    <path d="M210.682 43.2943V15.2239L215.124 14.3999V25.8617C215.982 25.4565 216.813 25.1525 217.625 24.9634C218.437 24.7743 219.255 24.6798 220.087 24.6798C222.403 24.6798 224.297 25.5038 225.776 27.145C227.254 28.7863 227.993 30.9004 227.993 33.4872C227.993 36.4185 227.076 38.7825 225.228 40.5926C223.387 42.4027 220.978 43.3078 218.008 43.3078C217.407 43.3078 216.767 43.247 216.074 43.1254C215.381 43.0038 214.503 42.7944 213.434 42.4838L210.669 43.3078L210.682 43.2943ZM215.124 29.2186V39.6065C215.599 39.7483 216.048 39.8496 216.49 39.9104C216.925 39.978 217.348 40.005 217.757 40.005C219.486 40.005 220.866 39.4444 221.902 38.3164C222.931 37.1885 223.453 35.6756 223.453 33.7844C223.453 32.0621 223.01 30.6842 222.126 29.6373C221.242 28.5904 220.08 28.0704 218.635 28.0704C218.1 28.0704 217.539 28.1649 216.965 28.354C216.384 28.5431 215.771 28.8336 215.124 29.2118V29.2186Z" fill="#002E6D"></path>
    <path d="M17.0272 36.7562V23.2816L7.37842 40.1265H14.0441C14.4203 38.4785 15.5687 37.1817 17.0338 36.7562H17.0272Z" fill="#97CAEB"></path>
    <path d="M19.1128 36.7562C20.5779 37.1817 21.7197 38.4785 22.1025 40.1265H53.0683L30.3719 0L19.1128 19.6479V36.7562Z" fill="#002E6D"></path>
    <path d="M22.0956 42.4771C21.7194 44.1251 20.5711 45.4219 19.106 45.8474V53.0001H60.3409L54.388 42.4771H22.089H22.0956Z" fill="#C2D500"></path>
    <path d="M17.0272 45.8474C15.5621 45.4219 14.4204 44.1251 14.0376 42.4771H6.02553L0 53.0001H17.0272V45.8474Z" fill="#00A19B"></path>
  </g>
  <defs>
    <clipPath id="clip0_411_5604">
      <rect width="228" height="53" fill="white"></rect>
    </clipPath>
  </defs>
</svg>
